<svg xmlns="http://www.w3.org/2000/svg" viewBox="0 0 795.18665 197.98666" height="64" width="150"><path d="M30.498 195.773H0V1.963l30.498 1.966v191.844m49.927 0H49.927V57.548l30.498 1.721zM65.175 15.49c9.593 0 17.463 7.871 17.463 17.463 0 9.593-7.87 17.464-17.463 17.464-9.592 0-17.462-7.87-17.462-17.464 0-9.592 7.87-17.463 17.462-17.463m88.05 69.85v30.498h-22.873v79.802H99.854V44.02c0-23.119 19.183-44.025 41.811-44.025 7.624 0 13.774 2.214 15.25 3.197l-1.231 29.268h-14.019c-6.149 0-11.313 5.165-11.313 11.56v41.32h22.873m42.835 26.562h22.873V97.638c0-6.396-5.165-11.56-11.314-11.56a11.545 11.545 0 0 0-11.559 11.56zm-30.499-14.264c0-23.12 18.692-42.058 42.058-42.058 23.12 0 41.812 18.937 41.812 42.058v29.515c0 8.607-6.887 15.247-15.248 15.247H196.06v13.283c0 6.393 5.164 11.56 11.559 11.56h29.269l.984 25.825-27.547 4.18c-26.564 4.428-44.764-18.447-44.764-41.565V97.638m109.949 98.135V3.192h19.678v58.536c5.41-1.721 14.019-2.459 19.921-2.459 20.907 0 37.139 18.938 37.139 40.337v96.167h-19.184V99.606c0-10.577-8.608-18.94-19.184-18.94h-18.692v115.107h-19.677m148.721-37.138V125.43h-18.939c-10.574 0-18.937 8.363-18.937 18.938v14.267c0 10.574 8.363 19.182 18.937 19.182 10.578 0 18.939-8.608 18.939-19.182zm0-62.227c0-11.068-5.165-19.923-19.184-18.446h.245c-7.87.245-17.953 1.23-26.316 1.721-.245-7.133-.492-9.838-.737-15.248 6.64-2.46 16.232-4.92 24.35-5.166 24.594-.492 40.827 19.43 40.827 40.828v58.538c0 21.15-16.97 38.613-38.124 38.613-21.15 0-38.613-17.463-38.613-38.613v-12.052c0-21.153 14.51-37.139 38.613-37.139 9.102 0 13.774.984 18.939 2.458V96.408m74.287-37.138c21.153 0 38.614 17.215 38.614 38.614v2.46c-7.624.246-13.773.246-19.429.491v-2.951c0-10.33-8.61-18.938-19.185-18.938-10.33 0-18.694 8.608-18.694 18.938v61.488c0 10.821 8.364 18.939 18.694 18.939 10.33 0 18.938-7.871 19.185-18.202 9.59.74 18.692 1.23 19.43 1.23-.985 20.414-18.2 36.648-38.615 36.648-21.151 0-38.37-17.218-38.37-38.615V97.884c0-21.399 17.219-38.615 38.37-38.615m116.136 136.504l-37.384-65.178c-3.691-6.394-3.691-7.132.737-14.757l32.957-54.6h22.383l-37.14 62.963 40.09 71.572zM572.35 3.684v192.09h-19.676V3.683h19.676m87.769 115.107h37.877V98.128c0-10.575-8.61-19.183-18.939-19.183-10.576 0-18.938 8.608-18.938 19.183zm-19.676-20.661c0-21.397 17.217-38.86 38.614-38.86 21.151 0 38.37 17.463 38.37 38.86v30.253c0 5.658-4.428 9.838-9.839 9.838h-47.47v20.905c0 10.576 8.363 19.186 18.94 19.186h24.84c.246 6.393.493 10.823.985 15.248l-23.612 3.69c-24.103 4.18-40.828-16.725-40.828-38.124V98.13m113.918 97.643h-19.677V99.851c0-21.398 16.725-41.319 41.32-40.828 8.363.246 13.528 2.214 19.185 4.92-.246 5.902-.492 10.821-.737 15.248l-21.399-.491c-10.33 0-18.692 11.068-18.692 21.151v95.922" fill="#87b827"/></svg>