<?xml version="1.0" encoding="UTF-8" standalone="no"?>
<svg
   xmlns:dc="http://purl.org/dc/elements/1.1/"
   xmlns:cc="http://creativecommons.org/ns#"
   xmlns:rdf="http://www.w3.org/1999/02/22-rdf-syntax-ns#"
   xmlns:svg="http://www.w3.org/2000/svg"
   xmlns="http://www.w3.org/2000/svg"
   viewBox="0 0 795.18665 197.98666"
   height="64"
   width="150"
   xml:space="preserve"
   id="svg2"
   version="1.1"><metadata
     id="metadata8"><rdf:RDF><cc:Work
         rdf:about=""><dc:format>image/svg+xml</dc:format><dc:type
           rdf:resource="http://purl.org/dc/dcmitype/StillImage" /></cc:Work></rdf:RDF></metadata><defs
     id="defs6" /><g
     transform="matrix(1.3333333,0,0,-1.3333333,0,197.98667)"
     id="g10"><g
       transform="scale(0.1)"
       id="g12"><path
         id="path14"
         style="fill:#87b827;fill-opacity:1;fill-rule:nonzero;stroke:none"
         d="M 228.734,16.6016 H 0 V 1470.18 l 228.734,-14.75 V 16.6016" /><path
         id="path16"
         style="fill:#87b827;fill-opacity:1;fill-rule:nonzero;stroke:none"
         d="M 603.184,16.6016 H 374.449 V 1053.29 l 228.735,-12.91 z M 488.816,1368.73 c 71.942,0 130.969,-59.03 130.969,-130.97 0,-71.95 -59.027,-130.98 -130.969,-130.98 -71.941,0 -130.968,59.03 -130.968,130.98 0,71.94 59.027,130.97 130.968,130.97" /><path
         id="path18"
         style="fill:#87b827;fill-opacity:1;fill-rule:nonzero;stroke:none"
         d="M 1149.19,844.852 V 616.117 H 977.637 V 17.6016 H 748.902 V 1154.75 c 0,173.39 143.879,330.19 313.588,330.19 57.18,0 103.3,-16.61 114.37,-23.98 l -9.23,-219.51 h -105.14 c -46.12,0 -84.853,-38.74 -84.853,-86.7 V 844.852 h 171.553" /><path
         id="path20"
         style="fill:#87b827;fill-opacity:1;fill-rule:nonzero;stroke:none"
         d="M 1470.45,645.633 H 1642 v 106.98 c 0,47.969 -38.74,86.703 -84.86,86.703 -47.96,0 -86.69,-38.734 -86.69,-86.703 z m -228.74,106.98 c 0,173.407 140.19,315.437 315.43,315.437 173.4,0 313.59,-142.03 313.59,-315.437 V 531.254 c 0,-64.555 -51.65,-114.356 -114.36,-114.356 h -285.92 v -99.617 c 0,-47.949 38.73,-86.699 86.69,-86.699 h 219.52 L 1784.04,36.8906 1577.44,5.53906 C 1378.21,-27.668 1241.71,143.891 1241.71,317.281 v 435.332" /><path
         id="path22"
         style="fill:#87b827;fill-opacity:1;fill-rule:nonzero;stroke:none"
         d="M 2066.33,16.6016 V 1460.96 h 147.58 v -439.02 c 40.58,12.91 105.14,18.44 149.41,18.44 156.8,0 278.54,-142.036 278.54,-302.525 V 16.6016 H 2497.98 V 737.855 c 0,79.325 -64.56,142.043 -143.88,142.043 H 2213.91 V 16.6016 h -147.58" /><path
         id="path24"
         style="fill:#87b827;fill-opacity:1;fill-rule:nonzero;stroke:none"
         d="M 3181.74,295.141 V 544.172 H 3039.7 c -79.31,0 -142.03,-62.723 -142.03,-142.031 v -107 c 0,-79.309 62.72,-143.871 142.03,-143.871 79.33,0 142.04,64.562 142.04,143.871 z m 0,466.699 c 0,83.012 -38.74,149.422 -143.88,138.344 h 1.84 c -59.03,-1.84 -134.65,-9.219 -197.37,-12.907 -1.84,53.496 -3.69,73.786 -5.53,114.363 49.8,18.45 121.74,36.9 182.62,38.74 184.46,3.69 306.21,-145.728 306.21,-306.204 V 295.141 c 0,-158.629 -127.28,-289.60194 -285.93,-289.60194 -158.63,0 -289.6,130.97294 -289.6,289.60194 v 90.39 c 0,158.641 108.83,278.539 289.6,278.539 68.26,0 103.3,-7.379 142.04,-18.437 V 761.84" /><path
         id="path26"
         style="fill:#87b827;fill-opacity:1;fill-rule:nonzero;stroke:none"
         d="m 3738.89,1040.38 c 158.65,0 289.61,-129.118 289.61,-289.607 v -18.449 c -57.18,-1.847 -103.3,-1.847 -145.72,-3.687 v 22.136 c 0,77.473 -64.57,142.032 -143.89,142.032 -77.47,0 -140.2,-64.559 -140.2,-142.032 V 289.609 c 0,-81.16 62.73,-142.039 140.2,-142.039 77.48,0 142.04,59.032 143.89,136.512 71.93,-5.543 140.19,-9.23 145.72,-9.23 C 4021.12,121.75 3892,0 3738.89,0 3580.26,0 3451.12,129.129 3451.12,289.609 v 461.164 c 0,160.489 129.14,289.607 287.77,289.607" /><path
         id="path28"
         style="fill:#87b827;fill-opacity:1;fill-rule:nonzero;stroke:none"
         d="M 4609.91,16.6016 4329.53,505.441 c -27.68,47.95 -27.68,53.489 5.53,110.676 l 247.18,409.503 h 167.87 L 4471.56,553.391 4772.24,16.6016 Z M 4292.63,1457.27 V 16.6016 H 4145.06 V 1457.27 h 147.57" /><path
         id="path30"
         style="fill:#87b827;fill-opacity:1;fill-rule:nonzero;stroke:none"
         d="m 4950.89,593.98 h 284.08 v 154.954 c 0,79.312 -64.57,143.871 -142.04,143.871 -79.32,0 -142.04,-64.559 -142.04,-143.871 z m -147.57,154.954 c 0,160.476 129.13,291.446 289.61,291.446 158.63,0 287.77,-130.97 287.77,-291.446 V 522.035 c 0,-42.433 -33.21,-73.785 -73.79,-73.785 H 4950.89 V 291.461 c 0,-79.32 62.72,-143.891 142.04,-143.891 h 186.31 c 1.84,-47.9489 3.69,-81.1716 7.38,-114.3591 L 5109.53,5.53906 C 4928.76,-25.8203 4803.32,130.969 4803.32,291.461 v 457.473" /><path
         id="path32"
         style="fill:#87b827;fill-opacity:1;fill-rule:nonzero;stroke:none"
         d="M 5657.71,16.6016 H 5510.13 V 736.016 c 0,160.488 125.44,309.894 309.9,306.214 62.72,-1.85 101.46,-16.61 143.89,-36.9 -1.85,-44.267 -3.69,-81.162 -5.53,-114.365 l -160.49,3.687 c -77.48,0 -140.19,-83.011 -140.19,-158.636 V 16.6016" /></g></g></svg>
